<svg xmlns="http://www.w3.org/2000/svg" width="512" height="512" viewBox="0 0 512 512">
  <rect x="1.0" y="1.0" width="510" height="510" fill="none" stroke="#DDDDDD" stroke-width="2"/>
  <g id="outline" opacity="0.0">
    <path d="M 469.33 384.95 L 469.33 469.33 L 42.67 469.33 L 42.67 384.95 L 42.73 385.07 L 43.78 375.78 L 45.92 380.79 L 46.06 380.23 L 47.31 375.14 L 47.47 375.32 L 47.61 375.44 L 49.32 382.09 L 50.82 375.44 L 51.09 374.53 L 54.58 371.72 L 55.70 375.44 L 56.26 377.35 L 58.05 382.66 L 61.41 386.73 L 64.08 391.74 L 68.66 395.49 L 72.07 391.11 L 77.11 394.24 L 79.96 399.24 L 83.09 394.55 L 86.39 390.17 L 86.65 382.66 L 81.98 382.04 L 78.15 378.29 L 77.15 372.03 L 73.97 368.59 L 74.18 361.40 L 74.62 354.83 L 75.06 348.88 L 74.83 342.31 L 72.86 337.94 L 71.95 332.31 L 70.12 327.30 L 73.00 328.24 L 75.74 325.74 L 77.45 331.06 L 79.57 326.36 L 81.52 320.42 L 82.47 315.10 L 82.05 308.53 L 80.52 304.15 L 78.78 299.46 L 76.34 298.53 L 74.20 296.34 L 71.91 294.77 L 71.14 288.83 L 69.61 283.82 L 68.68 278.19 L 68.31 260.05 L 68.89 261.62 L 69.96 266.62 L 71.91 265.06 L 73.79 262.87 L 74.76 269.75 L 76.64 268.19 L 78.22 264.74 L 79.71 260.37 L 81.05 255.05 L 82.84 253.48 L 82.79 247.54 L 82.38 241.60 L 82.72 235.97 L 84.26 233.15 L 84.95 238.47 L 86.76 235.34 L 88.13 231.28 L 89.83 230.96 L 91.43 229.40 L 93.03 225.65 L 94.31 222.21 L 95.75 218.77 L 96.67 219.70 L 97.49 220.95 L 99.25 218.77 L 100.83 221.58 L 102.45 221.27 L 104.01 219.08 L 105.61 220.64 L 107.38 222.21 L 109.02 221.58 L 110.74 221.89 L 112.51 222.21 L 114.13 221.58 L 115.34 216.89 L 116.78 214.39 L 118.26 217.83 L 119.68 215.01 L 120.95 209.38 L 121.72 214.39 L 122.14 220.02 L 122.90 225.33 L 124.14 220.64 L 125.55 226.58 L 127.15 228.46 L 128.52 232.84 L 130.19 231.90 L 131.70 229.09 L 133.49 229.71 L 135.09 231.90 L 136.72 234.72 L 137.34 227.84 L 136.58 222.52 L 136.00 216.89 L 134.46 215.64 L 133.79 209.69 L 133.54 203.75 L 133.12 191.87 L 134.02 194.06 L 135.58 194.99 L 137.11 194.06 L 138.50 196.56 L 139.71 201.25 L 140.22 206.88 L 141.82 207.82 L 143.36 205.63 L 144.98 202.50 L 146.44 200.62 L 147.65 204.38 L 149.23 203.13 L 150.25 190.93 L 151.20 198.12 L 152.57 200.94 L 154.06 199.37 L 155.03 205.63 L 156.59 206.25 L 158.03 208.13 L 159.44 211.57 L 160.37 205.63 L 160.83 200.00 L 162.02 206.25 L 163.64 204.69 L 164.85 208.13 L 165.66 213.45 L 167.24 211.88 L 168.47 208.44 L 169.68 204.38 L 171.12 202.19 L 172.79 200.31 L 174.30 198.12 L 175.46 194.68 L 176.16 189.68 L 176.43 182.79 L 176.29 176.23 L 175.92 169.97 L 175.51 163.71 L 175.13 157.46 L 174.83 151.83 L 174.76 145.57 L 174.88 139.32 L 175.44 133.37 L 175.90 126.81 L 176.09 120.55 L 175.85 113.67 L 175.71 107.41 L 176.29 100.22 L 176.94 95.53 L 177.71 89.59 L 178.52 84.58 L 179.47 79.89 L 179.94 73.01 L 180.59 68.63 L 181.33 64.56 L 182.47 63.62 L 183.21 58.62 L 184.05 55.49 L 185.02 53.61 L 185.88 49.55 L 186.55 44.54 L 187.48 42.67 L 188.18 46.73 L 187.74 52.05 L 186.53 56.74 L 186.02 60.18 L 185.14 57.68 L 184.16 59.24 L 183.35 63.00 L 182.49 67.06 L 181.91 71.76 L 181.75 78.01 L 181.82 83.95 L 182.38 89.27 L 181.56 93.03 L 180.45 94.28 L 179.80 99.59 L 179.10 104.60 L 178.36 111.48 L 178.17 117.42 L 178.59 123.99 L 179.22 129.00 L 180.19 132.75 L 181.10 137.75 L 181.59 144.01 L 181.84 149.95 L 182.19 156.21 L 182.75 161.53 L 183.10 167.47 L 183.26 182.17 L 183.61 188.11 L 183.70 194.37 L 184.07 200.62 L 183.91 209.07 L 183.26 215.64 L 182.56 220.95 L 180.98 223.14 L 180.45 228.77 L 179.73 234.09 L 177.94 240.03 L 176.36 242.54 L 174.88 245.98 L 173.28 249.42 L 172.33 255.99 L 170.42 256.61 L 168.33 255.99 L 166.45 257.24 L 164.46 257.24 L 164.83 263.49 L 166.64 266.31 L 167.96 270.69 L 168.70 276.32 L 167.38 281.32 L 165.34 279.76 L 163.64 283.82 L 163.57 290.39 L 163.53 296.65 L 164.92 301.97 L 165.18 307.91 L 166.68 313.85 L 169.19 316.35 L 171.33 320.73 L 173.02 325.74 L 175.18 330.74 L 178.13 333.24 L 181.03 337.62 L 183.05 342.31 L 185.25 347.63 L 186.42 355.14 L 187.00 361.08 L 188.43 355.45 L 190.38 350.76 L 192.45 345.76 L 194.91 341.69 L 197.02 337.31 L 199.97 337.00 L 202.87 339.19 L 205.26 342.94 L 206.03 336.06 L 207.68 331.37 L 210.67 331.06 L 213.02 327.61 L 215.25 324.17 L 217.71 321.98 L 220.33 319.17 L 222.16 315.10 L 221.33 309.47 L 220.82 303.84 L 220.82 297.90 L 218.52 298.53 L 216.08 301.03 L 213.76 301.03 L 213.44 295.08 L 213.60 283.20 L 214.13 279.76 L 215.83 276.00 L 217.82 272.25 L 219.26 267.56 L 220.70 262.87 L 221.77 256.61 L 223.39 253.80 L 225.00 251.61 L 225.81 250.36 L 227.64 249.73 L 229.38 247.54 L 230.84 244.41 L 232.28 240.66 L 233.58 236.91 L 235.23 231.90 L 236.28 226.58 L 237.39 221.89 L 237.74 215.64 L 236.49 211.88 L 236.90 205.32 L 237.69 200.31 L 238.92 197.18 L 240.22 193.43 L 241.43 188.42 L 242.36 182.17 L 242.94 174.66 L 243.80 170.28 L 245.21 171.22 L 245.79 176.54 L 247.21 177.16 L 247.26 171.22 L 247.86 164.97 L 249.14 166.53 L 249.44 172.47 L 250.85 173.41 L 252.39 170.60 L 253.87 168.72 L 255.22 169.66 L 255.73 176.23 L 257.03 170.91 L 258.24 168.09 L 259.58 165.90 L 260.91 163.71 L 262.11 159.96 L 263.44 157.46 L 264.46 154.02 L 265.18 148.39 L 266.06 152.45 L 267.29 150.26 L 268.15 157.77 L 268.82 163.40 L 270.17 160.27 L 270.70 154.02 L 271.91 149.64 L 273.46 150.58 L 273.93 156.52 L 274.90 150.58 L 276.18 148.70 L 277.57 148.08 L 278.83 148.39 L 280.15 150.26 L 281.43 151.20 L 281.98 156.52 L 282.75 161.21 L 284.05 158.40 L 285.44 157.77 L 286.79 157.77 L 288.11 157.46 L 289.29 155.27 L 290.55 153.39 L 291.59 149.01 L 292.71 146.20 L 293.91 144.63 L 294.82 140.26 L 295.47 131.50 L 296.14 126.18 L 297.37 128.68 L 297.84 134.31 L 298.86 138.07 L 300.09 136.81 L 300.92 142.44 L 301.81 146.51 L 303.01 142.76 L 303.43 135.88 L 304.50 133.06 L 305.73 127.74 L 306.89 125.55 L 308.28 122.43 L 309.21 118.99 L 310.19 115.23 L 311.12 111.79 L 312.23 113.67 L 313.30 108.04 L 314.06 103.66 L 315.18 103.97 L 316.15 100.22 L 316.38 94.59 L 317.38 90.21 L 318.36 87.08 L 319.54 84.58 L 320.63 83.33 L 321.68 84.27 L 322.79 85.83 L 323.74 90.21 L 323.86 97.09 L 324.90 102.41 L 325.62 106.79 L 327.04 108.66 L 327.83 113.04 L 328.80 117.42 L 329.94 118.36 L 330.89 115.23 L 331.91 108.66 L 333.03 112.10 L 334.19 113.98 L 335.30 115.86 L 336.46 117.11 L 337.65 117.11 L 338.62 133.69 L 338.58 137.75 L 338.44 144.95 L 337.30 149.01 L 336.37 154.96 L 336.53 161.21 L 337.86 160.90 L 337.69 167.15 L 337.09 173.10 L 336.53 179.67 L 337.44 184.67 L 338.81 186.24 L 340.18 183.42 L 340.83 177.16 L 341.22 171.22 L 341.87 166.22 L 342.62 161.53 L 342.92 155.89 L 343.54 148.08 L 344.29 146.51 L 345.63 145.89 L 346.82 144.01 L 348.02 141.51 L 348.60 135.25 L 348.95 129.31 L 349.76 123.37 L 350.93 119.30 L 351.92 116.17 L 352.57 110.85 L 353.25 108.04 L 354.11 105.54 L 355.29 107.10 L 356.36 105.54 L 357.52 103.66 L 358.82 104.60 L 359.68 100.22 L 360.28 89.58 L 360.72 93.96 L 361.28 101.47 L 362.28 104.60 L 363.41 105.85 L 364.55 103.97 L 365.76 105.22 L 366.87 105.54 L 367.62 103.97 L 368.61 104.91 L 369.52 108.35 L 370.59 106.16 L 371.86 106.16 L 372.95 103.97 L 374.18 106.16 L 374.97 100.84 L 375.58 95.53 L 376.39 91.15 L 377.88 79.26 L 378.64 81.45 L 379.55 85.83 L 380.34 91.46 L 381.84 101.16 L 383.01 101.47 L 384.10 101.47 L 385.37 99.59 L 386.65 97.40 L 387.62 93.03 L 388.44 88.33 L 389.76 87.71 L 390.64 84.27 L 391.57 87.40 L 392.17 92.40 L 393.01 97.40 L 394.31 96.78 L 395.12 100.84 L 396.54 104.91 L 398.02 106.48 L 399.25 105.22 L 400.18 100.22 L 400.97 95.22 L 402.04 93.96 L 403.11 96.15 L 404.34 97.72 L 405.45 95.22 L 406.52 95.22 L 407.56 96.78 L 408.66 98.34 L 409.72 95.53 L 411.00 93.03 L 412.21 92.40 L 413.55 92.40 L 414.64 90.84 L 415.71 89.59 L 416.04 81.77 L 416.08 75.20 L 416.83 79.58 L 417.04 86.77 L 417.43 93.34 L 417.92 98.66 L 418.92 101.47 L 420.26 100.53 L 421.82 100.22 L 422.89 99.28 L 424.44 99.28 L 425.55 98.97 L 427.11 99.59 L 428.43 100.84 L 429.27 105.85 L 429.04 111.79 L 429.80 116.48 L 431.08 120.24 L 432.40 124.30 L 433.93 127.12 L 435.54 129.62 L 436.74 132.12 L 438.09 132.44 L 438.86 127.12 L 439.90 131.50 L 440.81 136.50 L 441.85 140.26 L 443.29 141.82 L 444.66 143.70 L 445.24 149.95 L 446.59 153.71 L 447.49 159.34 L 448.81 161.84 L 450.18 161.53 L 451.46 162.46 L 452.88 162.15 L 454.29 163.40 L 455.62 165.59 L 456.85 169.34 L 458.08 172.47 L 458.91 177.16 L 458.77 183.42 L 458.15 189.05 L 457.61 196.24 L 457.19 201.87 L 456.64 208.44 L 455.08 210.95 L 454.39 216.58 L 452.85 220.02 L 452.32 226.27 L 451.51 232.22 L 450.65 237.22 L 450.16 243.79 L 449.86 249.73 L 449.74 256.93 L 449.77 262.87 L 450.44 269.12 L 450.69 275.07 L 451.25 280.70 L 453.46 282.89 L 453.92 289.77 L 451.79 292.27 L 449.97 295.71 L 447.72 296.34 L 446.72 305.41 L 446.52 312.91 L 446.01 318.86 L 445.38 324.80 L 446.96 330.12 L 447.56 336.69 L 448.58 342.63 L 450.02 347.95 L 451.67 352.95 L 453.46 357.95 L 456.17 362.96 L 456.78 370.78 L 460.19 374.22 L 460.42 375.44 L 461.30 380.16 L 464.58 376.10 L 467.29 381.10 L 469.33 384.95 Z" fill="none" stroke="#777777" stroke-width="2"/>
  </g>
  <g id="dots">
      <circle cx="453.53" cy="275.33" r="26.00" fill="#111111"/>
  </g>
</svg>
