<svg xmlns="http://www.w3.org/2000/svg" width="512" height="512" viewBox="0 0 512 512">
  <rect x="1.0" y="1.0" width="510" height="510" fill="none" stroke="#DDDDDD" stroke-width="2"/>
  <g id="outline" opacity="0.0">
    <path d="M 469.33 368.10 L 467.43 421.08 L 434.97 409.89 L 441.05 469.33 L 414.48 430.82 L 409.12 393.19 L 391.42 357.63 L 352.57 314.63 L 266.92 311.68 L 275.38 342.13 L 246.18 383.23 L 206.61 368.26 L 193.09 381.70 L 166.76 373.65 L 130.78 367.03 L 116.30 306.20 L 84.08 250.65 L 99.90 206.13 L 42.67 186.34 L 63.31 159.42 L 121.44 131.89 L 54.32 92.79 L 87.17 42.67 L 160.83 74.59 L 205.22 78.23 L 213.42 129.60 L 301.90 139.73 L 388.14 138.64 L 441.76 151.25 L 398.88 213.77 L 357.28 218.03 L 328.57 260.08 L 379.48 298.36 L 394.68 251.15 L 420.36 250.92 L 469.33 368.10 Z" fill="none" stroke="#777777" stroke-width="2"/>
  </g>
  <g id="dots">
      <circle cx="287.53" cy="229.09" r="5.95" fill="#111111"/>
      <circle cx="258.21" cy="231.41" r="6.33" fill="#111111"/>
      <circle cx="126.57" cy="193.03" r="6.53" fill="#111111"/>
      <circle cx="157.81" cy="149.42" r="6.59" fill="#111111"/>
      <circle cx="90.72" cy="195.77" r="8.52" fill="#111111"/>
      <circle cx="330.99" cy="263.15" r="9.57" fill="#111111"/>
      <circle cx="151.21" cy="94.37" r="9.57" fill="#111111"/>
      <circle cx="180.29" cy="311.32" r="11.14" fill="#111111"/>
      <circle cx="391.12" cy="346.15" r="16.77" fill="#111111"/>
      <circle cx="258.68" cy="244.79" r="26.00" fill="#111111"/>
  </g>
</svg>
