<svg xmlns="http://www.w3.org/2000/svg" width="512" height="512" viewBox="0 0 512 512">
  <rect x="1.0" y="1.0" width="510" height="510" fill="none" stroke="#DDDDDD" stroke-width="2"/>
  <g id="outline" opacity="0.0">
    <path d="M 219.06 73.91 L 249.35 71.81 L 297.74 79.13 L 308.25 75.85 L 336.28 75.18 L 350.63 67.39 L 374.79 67.81 L 418.82 57.73 L 450.86 42.67 L 450.86 42.67 L 450.86 42.67 L 457.37 54.31 L 455.71 80.19 L 460.69 102.99 L 462.25 143.58 L 469.33 156.31 L 457.32 174.87 L 441.70 192.91 L 416.06 209.01 L 379.25 218.89 L 333.86 231.50 L 288.37 259.38 L 272.87 264.12 L 244.76 282.58 L 228.17 288.58 L 224.77 307.11 L 243.87 326.78 L 251.81 342.01 L 252.31 349.78 L 259.43 348.49 L 258.27 373.96 L 251.74 386.03 L 261.23 390.48 L 255.25 401.29 L 238.41 410.53 L 205.20 419.31 L 156.77 433.37 L 139.11 442.97 L 142.56 453.91 L 152.86 455.66 L 149.40 469.33 L 118.86 469.12 L 115.40 457.63 L 109.44 445.98 L 106.00 436.66 L 113.18 407.70 L 102.70 389.24 L 83.41 352.68 L 125.84 323.20 L 136.46 304.46 L 142.54 302.10 L 147.09 286.81 L 140.62 279.11 L 142.34 259.70 L 150.19 241.70 L 150.10 208.82 L 129.19 200.47 L 110.02 198.59 L 101.34 192.16 L 82.68 186.68 L 49.09 187.19 L 46.48 177.50 L 42.67 159.02 L 164.86 137.60 L 188.04 150.07 L 199.12 147.69 L 215.01 154.26 L 217.35 164.67 L 208.88 176.75 L 211.86 195.06 L 238.13 211.10 L 250.43 193.08 L 267.86 187.61 L 264.43 154.21 L 247.56 135.42 L 233.03 127.05 L 219.06 127.43 L 207.78 93.66 L 219.06 73.91 Z" fill="none" stroke="#777777" stroke-width="2"/>
  </g>
  <g id="dots">
      <circle cx="458.96" cy="111.68" r="11.88" fill="#111111"/>
      <circle cx="246.46" cy="120.48" r="12.16" fill="#111111"/>
      <circle cx="465.71" cy="152.95" r="12.43" fill="#111111"/>
      <circle cx="179.86" cy="194.35" r="14.16" fill="#111111"/>
      <circle cx="312.81" cy="239.09" r="15.00" fill="#111111"/>
      <circle cx="175.70" cy="271.24" r="15.42" fill="#111111"/>
      <circle cx="230.29" cy="290.13" r="18.06" fill="#111111"/>
      <circle cx="408.58" cy="167.34" r="20.95" fill="#111111"/>
      <circle cx="134.45" cy="449.07" r="24.34" fill="#111111"/>
      <circle cx="139.46" cy="449.16" r="26.00" fill="#111111"/>
  </g>
</svg>
