<svg xmlns="http://www.w3.org/2000/svg" width="512" height="512" viewBox="0 0 512 512">
  <rect x="1.0" y="1.0" width="510" height="510" fill="none" stroke="#DDDDDD" stroke-width="2"/>
  <g id="outline" opacity="0.0">
    <path d="M 448.22 47.12 L 469.33 100.42 L 441.19 244.75 L 412.55 304.08 L 344.69 304.15 L 363.67 469.33 L 301.58 432.51 L 230.07 363.51 L 125.37 396.26 L 42.67 383.89 L 42.67 383.89 L 100.88 340.57 L 199.80 108.65 L 354.35 42.67 L 448.22 47.12 Z" fill="none" stroke="#777777" stroke-width="2"/>
  </g>
  <g id="dots">
      <circle cx="329.34" cy="305.59" r="13.10" fill="#111111"/>
      <circle cx="207.70" cy="345.93" r="13.41" fill="#111111"/>
      <circle cx="257.20" cy="222.39" r="13.71" fill="#111111"/>
      <circle cx="243.32" cy="350.83" r="14.45" fill="#111111"/>
      <circle cx="286.98" cy="368.90" r="14.76" fill="#111111"/>
      <circle cx="409.99" cy="88.58" r="15.46" fill="#111111"/>
      <circle cx="246.82" cy="266.44" r="18.76" fill="#111111"/>
      <circle cx="153.78" cy="268.67" r="21.19" fill="#111111"/>
      <circle cx="174.18" cy="292.98" r="23.55" fill="#111111"/>
      <circle cx="220.55" cy="221.80" r="26.00" fill="#111111"/>
  </g>
</svg>
